HIERARCHY
ROOT hip
{
	OFFSET 0.000000 0.000000 0.000000 
	CHANNELS 6 Xposition Yposition Zposition Xrotation Zrotation Yrotation
	JOINT abdomen
	{
		OFFSET 0.000000 3.402643 0.000000 
		CHANNELS 3 Xrotation Zrotation Yrotation
		JOINT chest
		{
			OFFSET 0.000000 8.438565 -0.680529 
			CHANNELS 3 Xrotation Zrotation Yrotation
			JOINT neck
			{
				OFFSET 0.000000 10.207942 -0.272212 
				CHANNELS 3 Xrotation Zrotation Yrotation
				JOINT head
				{
					OFFSET 0.000000 3.130431 0.000000 
					CHANNELS 3 Xrotation Zrotation Yrotation
					End Site
					{
						OFFSET 0.000000 3.130435 0.000000 
					}
				}
			}
			JOINT lCollar
			{
				OFFSET 3.470700 6.669187 -0.816635 
				CHANNELS 3 Yrotation Zrotation Xrotation
				JOINT lShldr
				{
					OFFSET 3.198488 0.000000 0.000000 
					CHANNELS 3 Zrotation Yrotation Xrotation
					JOINT lForeArm
					{
						OFFSET 10.139888 0.000000 0.000000 
						CHANNELS 3 Yrotation Zrotation Xrotation
						JOINT lHand
						{
							OFFSET 8.370511 0.000000 0.000000 
							CHANNELS 3 Zrotation Yrotation Xrotation
							End Site
							{
								OFFSET 4.083176 0.000000 0.000000 
							}
						}
					}
				}
			}
			JOINT rCollar
			{
				OFFSET -3.470700 6.669187 -0.816635 
				CHANNELS 3 Yrotation Zrotation Xrotation
				JOINT rShldr
				{
					OFFSET -3.198488 0.000000 0.000000 
					CHANNELS 3 Zrotation Yrotation Xrotation
					JOINT rForeArm
					{
						OFFSET -10.139888 0.000000 0.000000 
						CHANNELS 3 Yrotation Zrotation Xrotation
						JOINT rHand
						{
							OFFSET -8.370511 0.000000 0.000000 
							CHANNELS 3 Zrotation Yrotation Xrotation
							End Site
							{
								OFFSET -4.083176 0.000000 0.000000 
							}
						}
					}
				}
			}
		}
	}
	JOINT lThigh
	{
		OFFSET 5.308129 -1.633274 1.361059 
		CHANNELS 3 Xrotation Zrotation Yrotation
		JOINT lShin
		{
			OFFSET -2.041588 -20.007561 0.000000 
			CHANNELS 3 Xrotation Zrotation Yrotation
			JOINT lFoot
			{
				OFFSET 0.000000 -19.190928 -1.224953 
				CHANNELS 3 Xrotation Yrotation Zrotation
				End Site
				{
					OFFSET 0.000000 -2.449906 4.627600 
				}
			}
		}
	}
	JOINT rThigh
	{
		OFFSET -5.308129 -1.633274 1.361059 
		CHANNELS 3 Xrotation Zrotation Yrotation
		JOINT rShin
		{
			OFFSET 2.041588 -20.007561 0.000000 
			CHANNELS 3 Xrotation Zrotation Yrotation
			JOINT rFoot
			{
				OFFSET 0.000000 -19.190928 -1.224953 
				CHANNELS 3 Xrotation Yrotation Zrotation
				End Site
				{
					OFFSET 0.000000 -2.449906 4.627600 
				}
			}
		}
	}
}
MOTION
Frames: 20
Frame Time: 0.033333
-0.011447 43.977604 0.440263 -2.382813 -3.613281 81.298210 10.370376 -8.712459 -6.345483 -10.869141 17.460936 12.815430 7.510287 9.175185 0.646516 -6.308595 -3.613281 -16.689457 2.000000 -2.000000 0.000000 -75.429688 18.173828 -9.069218 -38.232849 -2.897588 43.862938 -10.110703 11.691857 46.493294 -2.000000 2.000000 0.000000 65.019531 -3.183594 60.145943 9.683308 -9.130908 -15.721237 21.514536 0.204442 -10.149220 9.673762 9.451421 20.354628 57.027008 1.318408 -2.117535 5.311426 6.880698 -19.502098 -1.678876 4.374671 2.483130 11.013232 1.814060 0.434772 -7.139487 -12.625566 27.745817 
-0.119119 44.016251 0.857119 -3.681641 -3.974610 81.981743 10.370376 -8.712459 -6.345483 -10.322266 18.554691 13.193362 6.639675 8.815988 0.621800 -6.054689 -3.378906 -17.060549 2.000000 -2.000000 0.000000 -75.087891 17.089844 -9.655334 -38.264126 -3.191929 45.648697 -11.069782 11.273626 46.247055 -2.000000 2.000000 0.000000 64.482422 -2.460938 60.448799 10.328918 -10.024732 -16.223835 20.497097 0.070678 -10.312408 3.329500 12.607143 21.665476 64.503471 3.679867 -1.875002 7.223143 6.999297 -19.153801 1.123456 6.367479 2.974056 8.879669 1.257307 0.178967 -7.838429 -13.180288 27.106070 
-0.330752 44.037621 1.222006 -4.472656 -4.160156 82.362572 10.370376 -8.712459 -6.345483 -9.472656 19.052734 13.469986 5.907742 7.876422 0.549454 -6.259767 -2.958984 -16.884907 2.000000 -2.000000 0.000000 -75.234375 15.966799 -10.908203 -37.987488 -3.335661 43.899639 -9.575910 10.435781 46.828987 -2.000000 2.000000 0.000000 63.818356 -0.898438 61.484371 10.640249 -11.110209 -16.028011 20.082855 -0.145096 -10.403396 -2.813978 14.678652 22.339581 69.045563 5.661407 -1.592927 7.486718 6.637493 -18.718203 3.759714 7.821482 3.340532 6.998983 0.761039 -0.071641 -7.959777 -13.165266 27.302242 
-0.628511 44.066357 1.502366 -4.765625 -4.453125 82.226563 10.370376 -8.712459 -6.345483 -8.671875 19.091797 13.616476 5.445325 6.457338 0.441797 -6.445313 -2.490234 -16.152348 2.000000 -2.000000 0.000000 -75.800781 15.097657 -12.724610 -37.470825 -3.640837 39.218616 -6.441062 9.273746 47.917484 -2.000000 2.000000 0.000000 63.076168 1.562500 62.910263 10.445639 -11.802368 -15.298973 20.322758 -0.326046 -10.409481 -8.475805 15.697518 22.405569 69.872215 6.594011 -1.414276 6.967968 6.417399 -19.206594 5.532442 8.684792 3.569194 6.060654 0.458440 -0.231654 -8.040485 -12.447927 27.371361 
-0.919961 44.098949 1.673533 -4.443359 -4.638672 82.059761 10.370376 -8.712459 -6.345483 -8.115234 18.388672 13.525393 5.184913 4.869651 0.328299 -6.445313 -2.128906 -15.136721 2.000000 -2.000000 0.000000 -76.328125 14.589844 -14.108868 -37.164700 -3.975870 33.864445 -3.403284 8.503242 48.905258 -2.000000 2.000000 0.000000 62.314453 4.082031 63.964844 10.288613 -12.380898 -13.750370 20.815054 -0.551638 -10.362501 -13.075244 15.417217 21.867817 67.427505 6.614679 -1.364532 5.920635 7.048450 -19.891413 6.694293 8.695328 3.548761 6.041080 0.458420 -0.232480 -8.955590 -11.876177 25.398211 
-1.197558 44.126270 1.780083 -3.505859 -4.814453 82.099609 10.370376 -8.712459 -6.345483 -7.880859 16.894533 13.186432 4.948951 3.081470 0.195216 -6.210938 -1.757813 -14.306643 2.000000 -2.000000 0.000000 -76.679688 14.208984 -15.105023 -37.085007 -4.214637 29.802155 -1.335543 8.496116 49.571869 -2.000000 2.000000 0.000000 61.562496 6.279297 64.726570 10.357472 -13.080638 -11.976968 21.069033 -0.527945 -10.338799 -16.786995 14.032993 20.900412 62.270706 6.029451 -1.305832 4.468661 8.017205 -20.190054 7.559056 8.037406 3.331335 6.476013 0.622976 -0.168680 -10.450671 -12.091296 22.460442 
-1.438224 44.168179 1.884269 -2.470703 -4.892578 82.098778 10.370376 -8.712459 -6.345483 -7.841797 15.107422 12.734375 4.803166 1.092808 0.042082 -5.820314 -1.191406 -13.671874 2.000000 -2.000000 0.000000 -76.933594 14.013672 -15.886306 -37.065151 -4.011279 28.087162 -0.648363 9.178329 49.871914 -2.000000 2.000000 0.000000 60.898438 8.095704 65.177155 10.861957 -13.686054 -10.537441 20.913565 -0.504967 -10.347369 -19.244982 12.564300 20.063400 55.174015 4.830198 -1.317167 2.997416 8.441723 -19.965244 8.743524 7.260712 3.061986 6.564440 0.700735 -0.112956 -11.624938 -12.300901 20.576353 
-1.631094 44.211563 1.990972 -1.630859 -5.117188 81.884766 10.370376 -8.712459 -6.345483 -8.066406 13.466798 12.304688 4.637689 -0.894421 -0.101723 -5.244141 -0.644531 -13.046876 2.000000 -2.000000 0.000000 -77.353516 13.876952 -16.708984 -36.982635 -3.226777 28.417866 -0.984140 10.223867 49.854420 -2.000000 2.000000 0.000000 60.332031 9.355470 65.546875 11.893252 -14.452327 -9.400959 20.675449 -0.695100 -10.409092 -20.639208 11.683138 19.552555 47.588711 2.954991 -1.387461 2.058413 8.185522 -19.785456 10.063626 6.686647 2.893149 6.383984 0.653598 -0.152079 -12.517791 -12.207870 19.926558 
-1.785488 44.225121 2.088713 -0.957031 -5.556640 81.542969 10.370376 -8.712459 -6.345483 -8.652344 11.904298 11.837953 4.434175 -2.711641 -0.231872 -4.648438 -0.117188 -12.558595 2.000000 -2.000000 0.000000 -78.105469 13.808594 -17.566027 -36.837021 -1.835887 29.355856 -1.723126 11.485405 49.694717 -2.000000 2.000000 0.000000 59.775391 10.117187 65.968506 13.385145 -15.533901 -7.885117 20.693439 -0.763868 -10.398262 -20.751301 11.073565 19.354506 38.905350 0.674601 -1.452848 2.273651 8.018913 -20.220074 11.144810 6.324362 2.773492 6.362611 0.467982 -0.199021 -13.388801 -12.073082 19.833017 
-1.871349 44.201996 2.170921 -0.478515 -5.927726 81.102516 10.370376 -8.712459 -6.345483 -9.306640 10.341798 11.378706 4.205118 -4.318741 -0.343268 -4.072267 0.498047 -12.324203 2.000000 -2.000000 0.000000 -79.072266 13.867188 -18.261719 -36.500187 -0.015889 29.660154 -2.287997 12.444179 49.593174 -2.000000 2.000000 0.000000 59.199223 10.390625 66.398239 15.450296 -16.958902 -5.858690 21.170547 -0.784174 -10.303517 -19.684942 10.446506 19.264017 29.568302 -1.637235 -1.516809 2.610091 8.662561 -20.959686 12.435903 6.052379 2.668876 6.441931 0.292267 -0.212164 -14.304960 -11.895498 19.875895 
-1.876734 44.143677 2.237598 -0.332031 -6.171875 80.742188 10.370376 -8.712459 -6.345483 -9.970703 9.042969 10.966797 4.002296 -5.686753 -0.440845 -3.427735 1.132813 -12.226564 2.000000 -2.000000 0.000000 -80.078125 13.974609 -18.620687 -35.801563 1.815637 29.073254 -2.035960 13.019537 49.764229 -2.000000 2.000000 0.000000 58.642578 10.263672 66.669922 17.566681 -18.168070 -3.718573 21.836977 -0.623431 -10.150144 -17.907951 9.899983 19.271236 21.097580 -3.188189 -1.304213 2.706613 9.364928 -21.846136 13.947354 6.012757 2.629283 6.634482 0.096939 -0.241405 -15.076159 -11.622200 20.462572 
-1.822470 44.060535 2.281538 -0.380859 -6.464844 80.517578 10.370376 -8.712459 -6.345483 -10.839844 7.822266 10.556643 3.868281 -6.756304 -0.525002 -2.714844 1.591797 -12.109376 2.000000 -2.000000 0.000000 -81.152344 13.984376 -18.740236 -35.086166 3.817294 29.463278 -1.322390 13.837896 50.043041 -2.000000 2.000000 0.000000 58.310539 9.892579 66.816406 19.218393 -19.039598 -1.701905 22.848637 -0.305242 -9.968517 -16.352150 9.407663 19.289974 14.994565 -3.887042 -1.051272 2.845877 9.263507 -23.257294 15.392475 6.061862 2.627526 7.133291 -0.020328 -0.236885 -15.595609 -11.592295 21.621710 
-1.696903 43.965725 2.286176 -0.566406 -6.445323 80.477409 10.370376 -8.712459 -6.345483 -11.474608 6.572266 10.186664 3.824067 -7.574233 -0.576711 -2.001954 1.875000 -12.070314 2.000000 -2.000000 0.000000 -82.294922 13.867188 -18.747660 -34.523048 5.883766 31.024973 -0.033832 15.046656 50.491234 -2.000000 2.000000 0.000000 58.300781 9.189452 66.884766 20.369469 -19.939260 0.914373 23.811943 0.003426 -9.770425 -14.949460 8.943313 19.253040 11.903610 -4.004543 -0.895013 3.088623 8.581207 -24.528278 17.190004 6.023449 2.595573 7.843472 -0.109549 -0.175319 -15.855755 -11.696434 23.461554 
-1.517871 43.859974 2.241259 -0.849609 -6.269547 80.457893 10.370376 -8.712459 -6.345483 -11.933595 5.507813 9.882814 3.692976 -8.263712 -0.629176 -1.455078 2.138672 -11.992189 2.000000 -2.000000 0.000000 -83.623047 13.701172 -18.972296 -34.276909 7.595550 32.863346 2.591195 16.912844 51.430592 -2.000000 2.000000 0.000000 58.447266 8.251954 67.179138 20.713808 -20.443186 2.774325 24.081297 0.631675 -9.610219 -13.621962 8.543528 19.248226 11.151657 -3.816639 -0.824944 3.494606 7.184436 -25.473293 18.800634 5.857040 2.598902 9.200390 -0.067807 -0.122087 -15.936129 -11.747376 25.459526 
-1.292512 43.751144 2.131614 -0.849609 -6.464859 80.369972 10.370376 -8.712459 -6.345483 -12.919922 4.326172 9.473393 3.625763 -8.664456 -0.665945 -1.123047 2.617188 -11.943360 2.000000 -2.000000 0.000000 -85.097656 13.710938 -19.265265 -34.096008 8.888547 33.348949 7.114936 18.874901 53.308273 -2.000000 2.000000 0.000000 58.955078 7.138672 67.540276 20.174999 -20.543568 4.570493 24.137703 1.323838 -9.471050 -12.468223 8.043620 19.176550 11.175937 -3.527299 -0.726081 4.766557 5.664420 -27.073929 19.267099 5.400187 2.453162 11.978434 0.019872 0.078235 -15.789437 -11.959653 27.419386 
-1.070369 43.695335 1.974505 -0.273438 -7.021484 80.195313 10.370376 -8.712459 -6.345483 -14.404297 2.597656 8.857422 3.489027 -8.662996 -0.656290 -0.849610 3.046875 -11.679689 2.000000 -2.000000 0.000000 -86.298828 13.876953 -19.470312 -34.087509 10.358164 33.066803 11.067928 19.865900 55.036903 -2.000000 2.000000 0.000000 60.019527 6.201172 67.890625 18.823397 -20.215883 6.237162 24.383327 1.767012 -9.350797 -11.665345 7.484082 19.084269 11.880552 -3.691856 -0.847328 6.076689 5.078185 -29.469595 18.065578 4.316066 2.142351 16.697363 0.322465 0.592325 -15.187248 -12.670158 29.125080 
-0.882864 43.737740 1.771641 0.791016 -7.441390 79.979225 10.370376 -8.712459 -6.345483 -15.644531 0.517578 8.222733 3.168536 -8.584309 -0.658306 -0.595704 3.310547 -11.416017 2.000000 -2.000000 0.000000 -86.865234 14.091798 -19.450747 -33.766029 11.560769 30.889067 14.015433 19.384163 56.182915 -2.000000 2.000000 0.000000 61.376953 5.537110 68.223595 16.997892 -19.812349 7.928492 24.950932 1.801346 -9.232673 -10.659778 6.800896 18.909096 12.856256 -4.453108 -1.046528 6.206965 5.070686 -31.269627 15.357045 2.509383 1.586303 23.596651 1.020783 1.335465 -13.636850 -13.523168 30.743160 
-0.749825 43.878639 1.447220 1.992188 -7.490234 80.028023 10.370376 -8.712459 -6.345483 -16.132813 -1.298828 7.792970 2.836059 -8.603616 -0.655388 -0.527344 3.056641 -11.542971 2.000000 -2.000000 0.000000 -86.542969 14.726563 -18.886719 -33.944019 11.233201 28.361992 17.239372 19.169895 57.478630 -2.000000 2.000000 0.000000 62.207035 4.873047 68.155121 15.826426 -19.683174 10.079112 25.805544 1.603091 -9.099196 -8.797129 5.505619 18.601900 12.978414 -5.322920 -1.274636 5.630197 5.598250 -32.581810 11.677889 -0.175619 0.818232 32.437702 2.396946 2.465413 -11.606443 -13.535861 32.109039 
-0.709925 44.026699 0.983920 3.349610 -7.519532 80.291687 10.370376 -8.712459 -6.345483 -16.210939 -2.783203 7.490234 2.508576 -8.393590 -0.637758 -0.820313 2.666016 -11.962892 2.000000 -2.000000 0.000000 -85.351563 15.888673 -17.770763 -34.749733 9.507749 25.568239 19.668882 18.676880 58.360859 -2.000000 2.000000 0.000000 62.041012 4.072266 67.548828 16.314466 -19.838961 11.305267 27.362968 0.700799 -9.055854 -6.813040 3.521586 18.044163 12.323672 -5.956962 -1.353491 5.315820 6.280520 -33.938694 6.863175 -3.553534 -0.079139 41.821697 4.455381 3.775462 -7.276158 -14.528829 33.032440 
-0.751697 44.116585 0.491897 4.521484 -7.558594 80.418640 10.370376 -8.712459 -6.345483 -16.025391 -3.750000 7.343750 2.264223 -7.433236 -0.558525 -1.269532 1.875000 -12.167972 2.000000 -2.000000 0.000000 -83.720703 17.089844 -16.344784 -35.780128 7.341550 22.166733 20.422274 17.500107 58.373524 -2.000000 2.000000 0.000000 61.513676 3.291016 66.709549 17.307703 -19.877640 10.679948 28.225269 -0.203019 -9.224735 -5.092855 1.548502 17.508297 11.584031 -6.328913 -1.376545 4.054446 7.429304 -31.308357 1.913590 -6.659784 -0.865105 50.532169 5.740803 4.868543 -4.214454 -14.712496 34.360260 
